<svg version="1.1" xmlns="http://www.w3.org/2000/svg" viewBox="0 0 348.41604430736777 54.84721611924772" width="348.41604430736777" height="54.84721611924772">
  <!-- svg-source:excalidraw -->
  
  <defs>
    <style class="style-fonts">
      @font-face {
        font-family: "Virgil";
        src: url("https://excalidraw.com/Virgil.woff2");
      }
      @font-face {
        font-family: "Cascadia";
        src: url("https://excalidraw.com/Cascadia.woff2");
      }
    </style>
    
  </defs>
  <rect x="0" y="0" width="348.41604430736777" height="54.84721611924772" fill="#ffffff"></rect><g stroke-linecap="round"><g transform="translate(331.28620524768496 27.197123658749433) rotate(0 -159.08022775376566 0.39068500554418506)"><path d="M-0.07 -0.14 C-53.06 0.01, -265.12 0.71, -318.09 0.92" stroke="#e03131" stroke-width="2.5" fill="none" stroke-dasharray="8 10"></path></g><g transform="translate(331.28620524768496 27.197123658749433) rotate(0 -159.08022775376566 0.39068500554418506)"><path d="M-289.94 -9.44 C-296.02 -7.49, -301.72 -4.96, -318.09 0.92" stroke="#e03131" stroke-width="2.5" fill="none"></path></g><g transform="translate(331.28620524768496 27.197123658749433) rotate(0 -159.08022775376566 0.39068500554418506)"><path d="M-289.86 11.08 C-295.97 8.79, -301.69 7.08, -318.09 0.92" stroke="#e03131" stroke-width="2.5" fill="none"></path></g></g><mask></mask><g stroke-linecap="round"><g transform="translate(177.27456151370382 32.342848966212046) rotate(87.9814600962072 17.080162108114564 -5.440707987792905)"><path d="M0.13 0.09 C2.99 -1.8, 11.51 -11.45, 17.13 -11.35 C22.75 -11.25, 31.05 -1.28, 33.84 0.71 M-0.02 -0.02 C2.82 -1.96, 11.26 -11.67, 16.96 -11.6 C22.66 -11.52, 31.37 -1.61, 34.18 0.45" stroke="#1e1e1e" stroke-width="4" fill="none"></path></g></g><mask></mask><g stroke-linecap="round"><g transform="translate(-0.7254384862961842 22.345017124862466) rotate(90.44629685639333 16.89996020444022 5.406810481203024)"><path d="M-0.15 -0.03 C2.7 1.84, 11.57 11.47, 17.25 11.4 C22.94 11.32, 31.14 1.53, 33.95 -0.47 M0.1 -0.21 C2.92 1.76, 11.52 11.67, 17.14 11.58 C22.76 11.49, 30.97 1.23, 33.81 -0.77" stroke="#1e1e1e" stroke-width="4" fill="none"></path></g></g><mask></mask><g stroke-linecap="round"><g transform="translate(313.28620524768996 41.78050901171571) rotate(89.45831056000756 10.951170519214202 -14.025105481636956)"><path d="M-0.12 0.16 C1.6 -4.57, 6.69 -28.17, 10.39 -28.21 C14.08 -28.25, 20.06 -4.72, 22.03 -0.1 M0.21 0.05 C1.91 -4.66, 6.64 -27.9, 10.25 -27.97 C13.86 -28.05, 19.87 -5.03, 21.89 -0.42" stroke="#e03131" stroke-width="2" fill="none"></path></g></g><mask></mask></svg>