<svg version="1.1" xmlns="http://www.w3.org/2000/svg" viewBox="0 0 517.1873616606206 139.01011059157184" width="517.1873616606206" height="139.01011059157184">
  <!-- svg-source:excalidraw -->
  
  <defs>
    <style class="style-fonts">
      @font-face {
        font-family: "Virgil";
        src: url("https://excalidraw.com/Virgil.woff2");
      }
      @font-face {
        font-family: "Cascadia";
        src: url("https://excalidraw.com/Cascadia.woff2");
      }
    </style>
    
  </defs>
  <rect x="0" y="0" width="517.1873616606206" height="139.01011059157184" fill="#ffffff"></rect><g stroke-linecap="round"><g transform="translate(156.03508384395536 29.36001813107356) rotate(0 174.45490725266592 -1.0716605408207442)"><path d="M-0.12 -0.06 C58.06 -0.39, 290.85 -1.76, 349.03 -2.08 M0.09 -0.23 C58.25 -0.52, 290.8 -1.66, 348.93 -1.93" stroke="#1971c2" stroke-width="2" fill="none"></path></g><g transform="translate(156.03508384395536 29.36001813107356) rotate(0 174.45490725266592 -1.0716605408207442)"><path d="M320.79 8.47 C328.46 5.68, 336.22 2.69, 348.93 -1.93 M320.79 8.47 C329.3 5.38, 337.59 2.31, 348.93 -1.93" stroke="#1971c2" stroke-width="2" fill="none"></path></g><g transform="translate(156.03508384395536 29.36001813107356) rotate(0 174.45490725266592 -1.0716605408207442)"><path d="M320.69 -12.05 C328.37 -9.16, 336.15 -6.48, 348.93 -1.93 M320.69 -12.05 C329.22 -8.96, 337.54 -5.86, 348.93 -1.93" stroke="#1971c2" stroke-width="2" fill="none"></path></g></g><mask></mask><g stroke-linecap="round"><g transform="translate(19.035083843955363 112.36001813107356) rotate(0 174.5283698432927 -0.9797096412313238)"><path d="M-0.04 0.12 C58.14 -0.2, 290.95 -1.73, 349.1 -2.08 M0.21 0.05 C58.38 -0.24, 290.87 -1.62, 349.03 -1.93" stroke="#1971c2" stroke-width="2" fill="none"></path></g><g transform="translate(19.035083843955363 112.36001813107356) rotate(0 174.5283698432927 -0.9797096412313238)"><path d="M320.9 8.49 C329.58 5.57, 337.6 1.99, 349.03 -1.93 M320.9 8.49 C329.68 5.4, 338.23 2.05, 349.03 -1.93" stroke="#1971c2" stroke-width="2" fill="none"></path></g><g transform="translate(19.035083843955363 112.36001813107356) rotate(0 174.5283698432927 -0.9797096412313238)"><path d="M320.78 -12.03 C329.47 -8.81, 337.53 -6.24, 349.03 -1.93 M320.78 -12.03 C329.58 -8.83, 338.17 -5.87, 349.03 -1.93" stroke="#1971c2" stroke-width="2" fill="none"></path></g></g><mask></mask><g stroke-linecap="round"><g transform="translate(328.03508384395036 28.360018131073616) rotate(0 -159.01702987686048 0.44619294560502)"><path d="M0 -0.08 C-53.02 0.1, -265.06 0.77, -318.04 0.97" stroke="#e03131" stroke-width="2.5" fill="none" stroke-dasharray="8 10"></path></g><g transform="translate(328.03508384395036 28.360018131073616) rotate(0 -159.01702987686048 0.44619294560502)"><path d="M-289.88 -9.39 C-300.59 -5.57, -311.06 -1.37, -318.04 0.97" stroke="#e03131" stroke-width="2.5" fill="none"></path></g><g transform="translate(328.03508384395036 28.360018131073616) rotate(0 -159.01702987686048 0.44619294560502)"><path d="M-289.81 11.13 C-300.53 7.26, -311.02 3.77, -318.04 0.97" stroke="#e03131" stroke-width="2.5" fill="none"></path></g></g><mask></mask><g stroke-linecap="round"><g transform="translate(503.03508384395036 110.36001813107362) rotate(0 -159.08022775376566 0.39068500554418506)"><path d="M-0.07 -0.14 C-53.06 0.01, -265.12 0.71, -318.09 0.92" stroke="#e03131" stroke-width="2.5" fill="none" stroke-dasharray="8 10"></path></g><g transform="translate(503.03508384395036 110.36001813107362) rotate(0 -159.08022775376566 0.39068500554418506)"><path d="M-289.94 -9.44 C-296.02 -7.49, -301.72 -4.96, -318.09 0.92" stroke="#e03131" stroke-width="2.5" fill="none"></path></g><g transform="translate(503.03508384395036 110.36001813107362) rotate(0 -159.08022775376566 0.39068500554418506)"><path d="M-289.86 11.08 C-295.97 8.79, -301.69 7.08, -318.09 0.92" stroke="#e03131" stroke-width="2.5" fill="none"></path></g></g><mask></mask><g stroke-linecap="round"><g transform="translate(314.0234401099692 32.505743438536115) rotate(87.9814600962072 17.018105485005492 -5.383715544065751)"><path d="M0.09 -0.17 C2.96 -2.08, 11.67 -11.62, 17.34 -11.48 C23.01 -11.33, 31.36 -1.28, 34.11 0.71 M-0.08 0.13 C2.77 -1.76, 11.59 -11.3, 17.27 -11.25 C22.96 -11.19, 31.29 -1.53, 34.05 0.45" stroke="#1e1e1e" stroke-width="4" fill="none"></path></g></g><mask></mask><g stroke-linecap="round"><g transform="translate(347.0234401099692 116.50574343853611) rotate(87.9814600962072 17.080162108114564 -5.440707987792877)"><path d="M0.13 0.09 C2.99 -1.8, 11.51 -11.45, 17.13 -11.35 C22.75 -11.25, 31.05 -1.28, 33.84 0.71 M-0.02 -0.02 C2.82 -1.96, 11.26 -11.67, 16.96 -11.6 C22.66 -11.52, 31.37 -1.61, 34.18 0.45" stroke="#1e1e1e" stroke-width="4" fill="none"></path></g></g><mask></mask><g stroke-linecap="round"><g transform="translate(143.02344010996921 21.50791159718659) rotate(90.44629685639333 16.939485635733092 5.486080600593624)"><path d="M0.08 0.03 C2.93 1.91, 11.58 11.45, 17.23 11.35 C22.88 11.26, 31.15 1.45, 33.98 -0.54 M-0.1 -0.1 C2.72 1.78, 11.45 11.55, 17.11 11.51 C22.76 11.47, 31.07 1.66, 33.85 -0.34" stroke="#1e1e1e" stroke-width="4" fill="none"></path></g></g><mask></mask><g stroke-linecap="round"><g transform="translate(172.02344010996921 106.50791159718665) rotate(90.44629685639333 16.89996020444022 5.406810481202967)"><path d="M-0.15 -0.03 C2.7 1.84, 11.57 11.47, 17.25 11.4 C22.94 11.32, 31.14 1.53, 33.95 -0.47 M0.1 -0.21 C2.92 1.76, 11.52 11.67, 17.14 11.58 C22.76 11.49, 30.97 1.23, 33.81 -0.77" stroke="#1e1e1e" stroke-width="4" fill="none"></path></g></g><mask></mask><g stroke-linecap="round"><g transform="translate(163.03508384395536 15.36001813107356) rotate(88.7301378799116 10.83907175665513 14.045411802003002)"><path d="M-0.02 -0.15 C1.73 4.56, 6.78 28.14, 10.44 28.24 C14.11 28.34, 20.05 5.12, 21.97 0.45 M-0.29 0.25 C1.45 4.89, 6.66 27.93, 10.34 27.91 C14.02 27.89, 19.86 4.7, 21.8 0.12" stroke="#1971c2" stroke-width="2" fill="none"></path></g></g><mask></mask><g stroke-linecap="round"><g transform="translate(482.03508384395536 124.94340348403978) rotate(89.45831056000756 10.951170519214202 -14.025105481636984)"><path d="M-0.12 0.16 C1.6 -4.57, 6.69 -28.17, 10.39 -28.21 C14.08 -28.25, 20.06 -4.72, 22.03 -0.1 M0.21 0.05 C1.91 -4.66, 6.64 -27.9, 10.25 -27.97 C13.86 -28.05, 19.87 -5.03, 21.89 -0.42" stroke="#e03131" stroke-width="2" fill="none"></path></g></g><mask></mask><g stroke-linecap="round"><g transform="translate(307.03508384395536 13.36001813107356) rotate(268.92676908530285 11.043000157965935 14.137448661585665)"><path d="M0.03 0.18 C1.81 4.86, 6.87 28.18, 10.51 28.19 C14.15 28.2, 19.93 4.93, 21.86 0.25 M-0.21 0.09 C1.57 4.69, 6.69 27.77, 10.44 27.84 C14.19 27.9, 20.33 5.07, 22.3 0.47" stroke="#e03131" stroke-width="2" fill="none"></path></g></g><mask></mask><g stroke-linecap="round"><g transform="translate(23.035083843955363 98.36001813107356) rotate(88.7301378799116 10.889489640411398 14.072358564650386)"><path d="M-0.13 -0.18 C1.6 4.56, 6.83 28.28, 10.51 28.32 C14.18 28.36, 19.98 4.75, 21.91 0.09 M0.2 0.2 C1.91 4.88, 6.85 28.03, 10.43 28.04 C14.02 28.04, 19.75 4.8, 21.71 0.22" stroke="#1971c2" stroke-width="2" fill="none"></path></g></g><mask></mask></svg>