<?xml version="1.0" encoding="utf-8"?>
<!-- Generator: Adobe Illustrator 27.5.0, SVG Export Plug-In . SVG Version: 6.00 Build 0)  -->
<svg version="1.1" id="Layer_1" xmlns="http://www.w3.org/2000/svg" xmlns:xlink="http://www.w3.org/1999/xlink" x="0px" y="0px"
	 viewBox="0 0 323 198.8" style="enable-background:new 0 0 323 198.8;" xml:space="preserve">
<style type="text/css">
	
		.st0{opacity:0.35;fill-rule:evenodd;clip-rule:evenodd;fill:none;stroke:currentColor;stroke-linecap:round;stroke-linejoin:round;stroke-miterlimit:10;}
	.st1{fill-rule:evenodd;clip-rule:evenodd; fill: currentColor}
</style>
<path class="st0" d="M211.5,13.6c1.8,0.1,8.2,0.4,9.6,2.4c0.6,0.1,1.4,0,1.6-0.7c2-0.2,0.8-0.5,0.8,0.5c-0.1,0.7,0.7-0.3,1.3-0.6
	c0.7,0,0.9-0.9,1.5-0.8c-0.5,0.2-0.5,1.1,0.2,1c1.6,0.2,3.1,1.9,4.3,1.6c-0.1-1.2,0-0.8,0.8-0.3c0.1,0.7,1.8,3,0.9,2
	c-0.3,0.3-0.5,0.2-0.3-0.2c-0.3-0.2-0.2,0.3-0.2,0.4c-0.9-0.1-0.6,1-0.7,1.3c-0.5-0.2-0.9,0.6-1.6,0.9c-0.1,0.2-0.3-0.1-0.4,0.2
	c0.7-0.3-0.4,0.5-0.4,0c-0.1,0.3-0.3,0.8-0.6,1.1c-0.3-0.2,0,0.3-0.4,0.3c0.1-0.3-1.1,0-1,0.1c-0.1-0.1-0.3-0.7-0.5-0.1
	c-0.2,0.3-0.6,0.3-0.9,0.3c0.4,0.3,0.4,0.3,0.4,0.7c0.4-1.8,2.3,0.6,2-0.7c-0.5-0.1,0.5-0.4,0.3-0.2c0.3,0,0.2-0.6,0.6-0.7
	c0.4-0.7,2.9-1.3,2.6-2.4c1-1.8,1.8,1.1,1.4,2.3c-0.4,0.9-2.3,1.6-2.9,1.9c0.4,1.3,6.4-1.8,5,0.8c1,1.3-0.9,1.3-0.3,1.9
	c-0.3,1.9,0.7-0.8,1.3-1.5c1-0.9,6,1.2,7,2.2c1.2,1.5,3.9-2.5,5.2-1.4c-1-0.1-1.1,0.1-0.1,0.1c0.5,0.4,1.3-0.7,1.7-0.4
	c0.7,0-0.4,0.7-0.5,0.9c0-0.1-0.2-0.1-0.3-0.2c1.1,3.5-0.2,4.3-3,6.4c-0.3-0.1-0.7-0.2-1-0.3c-1.3,1.9-0.5,2,1.3,2.7
	c-0.2,0.5-0.3,0.8-0.4,1.4c0,0.2-0.9,0.6-1.3,0.5c-0.5,0.2,0.9,0.3,0.6,0.1c0.7,0,0.8-1,1.3-0.5c-0.3,0.8,1.8,0.1,0.3-0.1
	c-1,0.1,0.3-1.1-0.9-0.4c0.5-0.8,3.7-1.9,4.8-1.7c0.3,0.6,0.6,0.8,1.1,0.7c-0.6,0.7,0,1.7,0.9,0.9c0.3-0.7,1.3,0.5,1.8,0.8
	c-0.1,0.3,0.6,0.3,0.2,0c0.2-0.1,0.5-0.5,0.5-0.5c0-0.3,0.2-1-0.2-0.8c0.4-0.3,0.8-0.2,0.4-0.6c0.5-1.1,1.5-0.3,1.4-1.6
	c1.5-0.7,0.3-1.3-0.5-0.1c-0.3,0.8-0.1-0.2-0.4,0c-0.5,1.3,0-0.3,0.5-0.6c1.4-1.5,6.3-1.8,8.1-2c0.3,0.6-0.5,2.2,1,2
	c-0.6,0.1-1.3-1.3-0.4-1.4c0.5-0.2,0.3-0.6-0.2-0.4c-1.1,0.8,6.6-7.8,6.3-7c-0.5,0.9,8.6,0.2,5.4,1.5c-0.9-0.4-1.8,0.5-2.4-0.4
	c-0.7-0.1-0.9,0.9-1.3,0.2c-0.6,0.5-1.1,0.3-0.7,1c-0.8-0.4-1.4,0.3-2.4,0.1c-0.4,0.1-0.3,0.6-0.2,0.9c-0.5-0.1-0.5-0.2-0.4,0.3
	c-0.8,0.5-0.5,1.5,0.4,1.8c1.6-0.1-0.7-0.1-0.1-0.9c1.1-0.2,0.6-0.9,1.3-1.1c1,0.1,0.4-0.7,0.8-0.9c-0.1-0.6,0.7,1,0.7,0
	c1.1,0,0.9-1.1,1.7-0.9c-0.5,0.3-0.6,1.5-0.2,0.3c0.5-0.3,0.1,0.7,0.5,0.5c0.6-0.3,0.3,0.4,0.9-0.5c0.5,3,2.4-1.9,3.8-0.8
	c-0.5,0.4,0,1.2,0.6,1c0.2,0.8,0.1,1.8,0.7,2.6c0.2,0.1,0.5,0.1,0.7-0.1c0.2,0.2,0.2,0.3-0.1,0.2c-0.2,0.1-0.4,0.6-0.1,0.2
	c0.2-0.4,1.1,0,0.9,0.3c1.1-0.1,1.3,0.9,2.1,1.5c-1.2,1.2,1.7-0.9,0.6,0.9c0.8-0.9,0.7,1.7,1.8,1.3c-1.1-1.5,2.4-1,3.1-2
	c0.6,0.3-0.9,0.4,0.3,0.7c0.6,0.1,0.4,0.7,1.1,0.9c0.2,0.7-0.9,1.7-0.7,1.7c0.6,1.1,1.8,1.4,2.4,2.5c-0.5,0.5-1.7,1-1.5,1.7
	c1.5,0.7,3.7,2.6,5.6,2.6c0.4-0.8,1.9-0.7,1,0.3c-1.4,0.7,0.5,0.2,0.5,1c-0.2,0.3,0.1,1.1,0.5,1.4c0.1,0.9-0.4,2.1,0.5,2.7
	c0.7,1.5,0.5,4.1,1.5,5.1c0.3,1-1.8,1.9-0.8,3c0.2,2.8-4.7,3.3-3.5,6.2c-1.1,1.2-0.2,1.2,0.8,1.3c1.3,1.1,4.4,4.3,5.9,4.8
	c0.6,1.1,0.5,2.7-0.4,3.9c-1,0.1-0.3,1.4-0.4,2c0.6,1.8,0.3,1.6,2.3,2.2c0.8,1.2-1.3,3.1,0.6,3.7c0.5,0.6,0.2,1.5-0.3,2
	c0.1,1.1-0.1,2.3-1,3c-2.1,1.1,0.4,1.7,0.1,3.2c0.9,0.9,1.7,1.7,1.6,3c-1.8,1.5,0.4,2,1.6,2.6c1.4,0.2,1.7,1.1,1.5,2.3
	c0.1,0.3,0.4,0.5,0,0.8c0.4,0.9,1.2,1.6,1.2,2.6c-0.9,0.9-0.4,2.2-1,3.1c-0.1,1.3-0.8,2.3-1.3,3.7c0.1,0.3-1.5,1.2-1,1.6
	c-0.2,1.5-1.1,1.2-2,0.8c-1.7-0.4-0.6-1.1-0.7-2.2c-0.2-0.2-1.2,0.8-1.3,0.1c1.4-2.2-0.9-1.3-1-2.8c-0.1,0.1-0.1,0.6-0.3,0.5
	c-0.4-0.5-1.3,0.7-1.5-0.4c-0.5,0-1.5-0.8-1.4,0.3c-0.2,0.5-0.7,0.8,0,1.2c1.3-0.4,0.1,0.1,0.5,0.5c1-0.1,2,1.1,0.7,1.2
	c-1.9,0.1-2.4,1.3-4.4,2c-0.7,0.1-1.2-0.3-1.8,0.2c-0.2,0.6-1,0-1,0.7c0.6,1.1-1.2,1-2,0.8c-1,0.5-2.3,0.1-3.4,0.7
	c0,0.7,0.3,0.5-0.4,1.2c0.1,1-1.4,1.5-2.1,0c0.2,0.6-0.2,0.9-0.7,1.1c-0.1,0.3,0.1,0.7-0.4,0.6c-1.1-0.9-1.1,0.8-1.6,1.7
	c-4.4-0.4-1.2,1.1-3.9,2.3c-1.4-1.2-2.6-1.3-3.6,0.2c-0.8-0.8-2.1-0.1-3,0.2c-0.3,0.3-0.1,1.1-0.6,0.9c-1.5,1.1-1.9,2.4-2.2,4.1
	c-0.7,0-0.7-0.7-0.5-1.1c-1.2-0.7-0.3-0.5-0.6-1.1c-0.9,0.2-0.9-0.6-1.1-1.2c-0.3,0.1-1.5-0.1-0.9,0.4c-0.1,0.4,0.5,0.9-0.4,1
	c-0.4,0.7,1,0.5,1,1.3c1.1,0.1,0,2.2,0.9,2.3c1.3,0.8-0.3,0.8,1.4,1.1c0,0.1,0.1,0.5,0.3,0.3c0.8,0.6,1.4,1,2,1.2
	c0.7,0.5-0.6,1.4,1.1,1.5c0.3,1.4-1.5,1.8-1.1,3.2c-0.5,0.3-1.6,0.8-0.7,1.3c1.4,1.9,1.3,0,1.7,2.6c0.7-0.1,0.3,1.4,0.8,1.7
	c0.3,0.5,1,0.4,0.8,1.4c-0.3,1.3,1.7,1.6,2.1,2.9c1,1,2.3-0.4,3.8,1.3c-0.1,1.5,2.1,2.2,2.2,3.6c1.4,1,4,1.3,3.6,3.7
	c1.7,2,1.9-0.8,3.1,1c0.6-0.2,0.7,2.3,1.9,1.3c0.4,1,1.3,1.6,1.2,2.6c1.1-0.1-0.6,1.2,0,1.5c0.5,2.1-0.4,3.1-1.2,4.2
	c-0.4,0.8-1.4-0.8-2-1c-0.6,0.5-1.4-1.1-1.6-0.3c-2,1.5,0.3,4.9-3.9,6.7c-2.4-0.1-4.9,1.5-6.2,2.9c-1.8,1-1.8,2.2,0.2,3.4
	c0,0,0.4,1.3,0.4,1.3c0.5,0.1,0.9,0.4,0.9,0.7c1.4,1.4,0.7,3.3-0.5,4.5c1.6,1.2,4.2,0.6,2.1,3.8c0.4,2.6-0.9,2.6-2.9,0.8
	c-2.6-1.4,0.3-1.3-1.2-2.3c0.3-1.4-2.6-1.6-3.1,0c-2.3,0.6-1.5-2.6-4.8-1c-0.6-1.2,0.8-2-1.4-0.5c0.3,1.8,0.8,2.4-1.9,1.9
	c-1.9-0.3-4.3,1.2-6.4,0.6c-1.1,0.7-0.7,2.5-3,1.6c-0.3,0.2-0.8,0.7-0.8,1.1c0.6,0.1,0.8,0.7,0.1,0.5c-1-0.3-1.3,0.6-1.9,1.1
	c-1.4,0.2,1.1-1.7-2.2-0.3c-1.3,1.2-2.4-0.2-2.9-1.6c-0.7-0.1-1.6-0.3-0.3-0.7c-0.1-1.1-1.4-0.2-2-0.1c-0.8-0.5-1.7-1.1-2.7-1.1
	c-0.4,0.8-2.4,1-2.1-0.1c0.5-0.5-1.1-0.3-0.4,0.2c0.4,0.3-0.5,1.4,0,1.8c0.4,0.1,0.4,0.5,0.3,0.8c-0.1,1.7-2.4,3.6-4.4,4.1
	c-0.2-0.6,1.8-2.6,0.1-2.8c-0.5,0-0.1,0.7-0.7,0.6c-0.9-0.1-0.8,0.2-1.1-1c1.2-0.8-0.3-0.8-0.3-1.7c-1.3,0.4-0.8-1.8-1.4-1.1
	c-3.4,0.1-1.1-1.4-2.9-1.2c-1.3,3.9-7.8-2.4-10.2-2.1c-1-0.3-2.3,0.4-3.1,0.6c-0.2-0.4-1.1-1.1-0.3-1.1c-1.4-0.9-1.6-1-1.3,0.5
	c-1.8-0.2-0.3-2.3-1.7-1.8c0.4-0.5-0.9-1.4-0.5-0.5c-0.1,1.1-0.8-1.5-1.3-0.4c0.5,0.4-0.9,0.3-1.1,0.6c-0.4,0.3-0.7,1.2-1.2,1.6
	c-0.3,1.4,0.8,0.6,0.8,1.4c0.2,0.1,0.3-0.4,0.8-0.1c0.2-0.5,1.1-0.9,1.5-0.2c0.1,0.3-0.2,0.5-0.2,0c-0.4,0.3,0.3,1.6-0.6,1.2
	c0.2-1.3-2.4-0.1-1.2,0.5c-0.5,0.4-1.2-0.1-1.6,0.2c-1.1,0.2-1.1-0.9-1.8-1c-1.4-0.7-2.5,1.4-3.9,1.4c-1.6-0.2-0.9,0.4-2-0.9
	c-0.5,0.1-4.6,2.2-3.4,0.3c0.2-0.1,0.2-0.3,0-0.4c0.5-0.6-0.1-0.3-0.4-0.1c-0.8,1.7-2.4-2.7-1.4-2.9c0.3-3.3,1-6,0.6-9.1
	c2.3-3.5,3-7.9,4-12.1c1.3-1.2,2.2-3.1,3.6-3.5c-0.1-0.7,3.3-4.9,1.8-4.1c-2-1.4-4.4-1.3-6-2.1c-0.4,0.3-0.8,0.6-1.2,0.3
	c-0.4-0.1-0.9,0.4-1.3-0.1c0-0.5-0.7-0.6-1.1-0.5c-1.1-0.8-0.7-2.2-1.9-1.9c-0.4-1.5-2,1.8-3,0.8c-2.4,0.7-1.6-1.4-2.9,0.4
	c-0.2-1.8-1.6-2.8-3.3-2.2c1,1.4-0.5,1-1.1,1.1c-1,0-0.5-0.7-0.7-1.3c-0.8,0.3-0.5-1.7-2-2.3c-0.8-1.4,1.2-0.4-0.7-1.9
	c0.6-0.8-1.3-1.3-1.7-1.6c-1.2,0.9-0.8-0.6-1-1.4c0.5-1.3,0.8-2.8,2.1-4.1c-0.1-0.5,0.5-1,0.1-1.8c0.5-0.4,0.3-0.4-0.1-0.5
	c-1.7-0.1-1.1-0.2-2.4-0.9c-0.5,0.7-0.5-0.5-1-0.7c-0.8-0.1-0.8-1.1-1-1.7c-0.8,0-0.6-0.8-1.2-1.1c0.4-0.6-0.7-1.5-0.3-2.2
	c0.1-0.2,0.3-1,0.4-1.4c-0.4-0.1,0-0.9,0.6-0.6c-0.7-2.5,1.4-1.1,1.9-3.2c1.5,0.5,1.7-0.5,0.5-1.3c1.1-1.4-0.1-3.3-1.8-2.7
	c-1.6-2.1,0.1-1.4,0.7-3c-2.1,0-1-0.5-2.5-2.2c-1.8,0.2-0.7-0.4-2-2c1,0.4,0.3-1,1.1-1.1c0.8,0.3,0.4-0.7,0.5-1.2
	c0.3-0.6-2-0.7-0.7-1.7c-2.4-0.6-1.4,0.9-2.4-1c-0.1-0.9,0.5-1.3,1-0.3c0.9-1.2,2.4-2.2,3.5-2.9c-0.6-0.3-0.3-0.3,0.2-0.5
	c-1.5-0.3-1.6,1.4-1.7-1.2c2-2.6,2.7-3.2,2-6.5c-0.7-0.9-2.2-1.8-1.3-3c-0.6-0.3-2.2-0.7-1-1.4c-3-1.1,0.1-0.7-1.5-2.3
	c-0.2-0.9,0.8-0.1,1.1-0.7c0.8-0.6,1.2-0.1,2.2-0.1c0-0.5-0.3-1.1-0.9-1.2c0.3-0.3,1.3-0.2,1.2,0.3c0.3,0.3,0.9,0.6,1.3,0.3
	c0.5,0.1,2.1,1.5,2,0.7c0.2-0.3-0.4-0.4-0.2-0.7c0.5,0.3,0.9,0.2,1.3,0.5c1.4-1.4,3.5-0.8,4.7-1.6c0-0.5,0.4-0.8,0.7-1
	c0.1-0.9-2.1-1.4-2.2-2c0.1-0.5,0.6-0.4,0.9-0.7c-0.2-0.9,1-0.9,1.6-0.8c0.5-0.5,0.5-1.5,1.4-1.4c0.3-0.5,0.7-1.3,1.4-1
	c0.6-0.3,0.1-0.7-0.1-1.1c1.1-1.9,0.2-2.9-0.7-4.5c-0.8,1.4-3.1,0.1-4.3-0.3c0.1-1.6-0.8-1.1,0.3-1.8c0,0,0.6,0,0.6,0
	c-2.4-2.6,1.9-1.9,3.4-1.9c2.6,0.1,2.8-14.1,4.2-15.8c-0.4-0.2-1.5,0.1-1-0.6c-0.3,0.6-1.7,0.5-2.2,0.3c-1.6,0.5-0.5-4,0.3-4.2
	c0.9,0.7-0.1-0.2,1.3-0.6c-3.4-0.7,3.9-4.4,5.4-2.8c5.2-0.6,7.5-2.6,9.9,2.7c-0.4,0.9-3,2.1-0.3,2.3c0.8,1.4,1.9,1.7,2.6,0
	c-0.1-1.4,0.6-1.8-1.2-1.6c-0.3-1,0.5-2.6,1.8-2c1,1.8,4.6,0.7,2.1,3.1c0.1,0-0.1,3.1,0.4,2.6c0,0,0.2-3.1,0.2-3.1
	c0.6-0.1,0.7-0.4,0.8-1c-1.4-1.7-1.4-4.5-0.2-6.3c1.4-3.4,2.2,0.3,7.2-0.2c3.8-4,6.8,5.3,10.1,6.4c5.4,0.4-1.7-0.3-2.3-2.3
	c0.1-1,0.1,0.3,0.4,0.3c0.4,0.4-0.3-0.8-0.3-0.9c-5.5-8.9-8-1.9-10.3-7.1c-1.3-1.7,0.5-1.1,1.6-1.1c0.5-0.9-0.8-3-1.8-2
	c-1.6-1.7,0.1-3,1.4-3.8c0.4-1.7-1.6,1.7-1.8-0.1c-0.7,0.6-1.9-0.6-2.2,0.6c-1.5-0.3-1.3-1.1-1.6-1.3c0.5,2-0.5-0.1,0.4-0.7
	c0.7,0.7,2.6-0.7,0-0.3c0.4-1.8,4.2,0,5.2-1.9c1.3-0.9,1.4,0.1,0.5-1.6c-0.4,0.6-2.5,2.3-2.6,0.8c-0.5-0.6,0.7-0.7,0.9-1.2
	c0.2-0.9-0.4-0.4-0.8-0.2c-1.1-0.4,0.3-0.1,0.7-0.4c0.6-0.9-0.1-0.7-0.6-0.9c-0.3,0.2,0.8-0.9-1.1-1.8c-0.1-1.3-0.8-1-0.8,0.2
	c-0.7,0.1-1.9,1.7-2.7,1c4.8-1.2,2-2.8,1.2-5.7c-0.8-0.2-2.4,0.2-2.9,0.8c-1.9-1.3-2,0.3-1.9,2.1c-0.5,2.1,1.1-8.1,2.2-6.7
	c1,0.3-0.3-0.1-0.6,0.1c0,0.3,0.7,0.2,0.7,0.6C204.3,13.2,209.8,15.5,211.5,13.6z"/>
<path class="st0" d="M56.7,13.5c1.8,0.1,8.2,0.4,9.6,2.4c0.6,0.1,1.4,0,1.6-0.7c2-0.2,0.8-0.5,0.8,0.5c-0.1,0.7,0.7-0.3,1.3-0.6
	c0.7,0,0.9-0.9,1.5-0.8c-0.5,0.2-0.5,1.1,0.2,1c1.6,0.2,3.1,1.9,4.3,1.6c-0.1-1.2,0-0.8,0.8-0.3c0.1,0.7,1.8,3,0.9,2
	c-0.3,0.3-0.5,0.2-0.3-0.2c-0.3-0.2-0.2,0.3-0.2,0.4c-0.9-0.1-0.6,1-0.7,1.3c-0.5-0.2-0.9,0.6-1.6,0.9c-0.1,0.2-0.3-0.1-0.4,0.2
	c0.7-0.3-0.4,0.5-0.4,0c-0.1,0.3-0.3,0.8-0.6,1.1c-0.3-0.2,0,0.3-0.4,0.3c0.1-0.3-1.1,0-1,0.1c-0.1-0.1-0.3-0.7-0.5-0.1
	c-0.2,0.3-0.6,0.3-0.9,0.3C71,23,71,23,71,23.4c0.4-1.8,2.3,0.6,2-0.7c-0.5-0.1,0.5-0.4,0.3-0.2c0.3,0,0.2-0.6,0.6-0.7
	c0.4-0.7,2.9-1.3,2.6-2.4c1-1.8,1.8,1.1,1.4,2.3c-0.4,0.9-2.3,1.6-2.9,1.9c0.4,1.3,6.4-1.8,5,0.8c1,1.3-0.9,1.3-0.3,1.9
	c-0.3,1.9,0.7-0.8,1.3-1.5c1-0.9,6,1.2,7,2.2c1.2,1.5,3.9-2.5,5.2-1.4c-1-0.1-1.1,0.1-0.1,0.1c0.5,0.4,1.3-0.7,1.7-0.4
	c0.7,0-0.4,0.7-0.5,0.9c0-0.1-0.2-0.1-0.3-0.2c1.1,3.5-0.2,4.3-3,6.4c-0.3-0.1-0.7-0.2-1-0.3c-1.3,1.9-0.5,2,1.3,2.7
	c-0.2,0.5-0.3,0.8-0.4,1.4c0,0.2-0.9,0.6-1.3,0.5c-0.5,0.2,0.9,0.3,0.6,0.1c0.7,0,0.8-1,1.3-0.5c-0.3,0.8,1.8,0.1,0.3-0.1
	c-1,0.1,0.3-1.1-0.9-0.4c0.5-0.8,3.7-1.9,4.8-1.7c0.3,0.6,0.6,0.8,1.1,0.7c-0.6,0.7,0,1.7,0.9,0.9c0.3-0.7,1.3,0.5,1.8,0.8
	c-0.1,0.3,0.6,0.3,0.2,0c0.2-0.1,0.5-0.5,0.5-0.5c0-0.3,0.2-1-0.2-0.8c0.4-0.3,0.8-0.2,0.4-0.6c0.5-1.1,1.5-0.3,1.4-1.6
	c1.5-0.7,0.3-1.3-0.5-0.1c-0.3,0.8-0.1-0.2-0.4,0c-0.5,1.3,0-0.3,0.5-0.6c1.4-1.5,6.3-1.8,8.1-2c0.3,0.6-0.5,2.2,1,2
	c-0.6,0.1-1.3-1.3-0.4-1.4c0.5-0.2,0.3-0.6-0.2-0.4c-1.1,0.8,6.6-7.8,6.3-7c-0.5,0.9,8.6,0.2,5.4,1.5c-0.9-0.4-1.8,0.5-2.4-0.4
	c-0.7-0.1-0.9,0.9-1.3,0.2c-0.6,0.5-1.1,0.3-0.7,1c-0.8-0.4-1.4,0.3-2.4,0.1c-0.4,0.1-0.3,0.6-0.2,0.9c-0.5-0.1-0.5-0.2-0.4,0.3
	c-0.8,0.5-0.5,1.5,0.4,1.8c1.6-0.1-0.7-0.1-0.1-0.9c1.1-0.2,0.6-0.9,1.3-1.1c1,0.1,0.4-0.7,0.8-0.9c-0.1-0.6,0.7,1,0.7,0
	c1.1,0,0.9-1.1,1.7-0.9c-0.5,0.3-0.6,1.5-0.2,0.3c0.5-0.3,0.1,0.7,0.5,0.5c0.6-0.3,0.3,0.4,0.9-0.5c0.5,3,2.4-1.9,3.8-0.8
	c-0.5,0.4,0,1.2,0.6,1c0.2,0.8,0.1,1.8,0.7,2.6c0.2,0.1,0.5,0.1,0.7-0.1c0.2,0.2,0.2,0.3-0.1,0.2c-0.2,0.1-0.4,0.6-0.1,0.2
	c0.2-0.4,1.1,0,0.9,0.3c1.1-0.1,1.3,0.9,2.1,1.5c-1.2,1.2,1.7-0.9,0.6,0.9c0.8-0.9,0.7,1.7,1.8,1.3c-1.1-1.5,2.4-1,3.1-2
	c0.6,0.3-0.9,0.4,0.3,0.7c0.6,0.1,0.4,0.7,1.1,0.9c0.2,0.7-0.9,1.7-0.7,1.7c0.6,1.1,1.8,1.4,2.4,2.5c-0.5,0.5-1.7,1-1.5,1.7
	c1.5,0.7,3.7,2.6,5.6,2.6c0.4-0.8,1.9-0.7,1,0.3c-1.4,0.7,0.5,0.2,0.5,1c-0.2,0.3,0.1,1.1,0.5,1.4c0.1,0.9-0.4,2.1,0.5,2.7
	c0.7,1.5,0.5,4.1,1.5,5.1c0.3,1-1.8,1.9-0.8,3c0.2,2.8-4.7,3.3-3.5,6.2c-1.1,1.2-0.2,1.2,0.8,1.3c1.3,1.1,4.4,4.3,5.9,4.8
	c0.6,1.1,0.5,2.7-0.4,3.9c-1,0.1-0.3,1.4-0.4,2c0.6,1.8,0.3,1.6,2.3,2.2c0.8,1.2-1.3,3.1,0.6,3.7c0.5,0.6,0.2,1.5-0.3,2
	c0.1,1.1-0.1,2.3-1,3c-2.1,1.1,0.4,1.7,0.1,3.2c0.9,0.9,1.7,1.7,1.6,3c-1.8,1.5,0.4,2,1.6,2.6c1.4,0.2,1.7,1.1,1.5,2.3
	c0.1,0.3,0.4,0.5,0,0.8c0.4,0.9,1.2,1.6,1.2,2.6c-0.9,0.9-0.4,2.2-1,3.1c-0.1,1.3-0.8,2.3-1.3,3.7c0.1,0.3-1.5,1.2-1,1.6
	c-0.2,1.5-1.1,1.2-2,0.8c-1.7-0.4-0.6-1.1-0.7-2.2c-0.2-0.2-1.2,0.8-1.3,0.1c1.4-2.2-0.9-1.3-1-2.8c-0.1,0.1-0.1,0.6-0.3,0.5
	c-0.4-0.5-1.3,0.7-1.5-0.4c-0.5,0-1.5-0.8-1.4,0.3c-0.2,0.5-0.7,0.8,0,1.2c1.3-0.4,0.1,0.1,0.5,0.5c1-0.1,2,1.1,0.7,1.2
	c-1.9,0.1-2.4,1.3-4.4,2c-0.7,0.1-1.2-0.3-1.8,0.2c-0.2,0.6-1,0-1,0.7c0.6,1.1-1.2,1-2,0.8c-1,0.5-2.3,0.1-3.4,0.7
	c0,0.7,0.3,0.5-0.4,1.2c0.1,1-1.4,1.5-2.1,0c0.2,0.6-0.2,0.9-0.7,1.1c-0.1,0.3,0.1,0.7-0.4,0.6c-1.1-0.9-1.1,0.8-1.6,1.7
	c-4.4-0.4-1.2,1.1-3.9,2.3c-1.4-1.2-2.6-1.3-3.6,0.2c-0.8-0.8-2.1-0.1-3,0.2c-0.3,0.3-0.1,1.1-0.6,0.9c-1.5,1.1-1.9,2.4-2.2,4.1
	c-0.7,0-0.7-0.7-0.5-1.1c-1.2-0.7-0.3-0.5-0.6-1.1c-0.9,0.2-0.9-0.6-1.1-1.2c-0.3,0.1-1.5-0.1-0.9,0.4c-0.1,0.4,0.5,0.9-0.4,1
	c-0.4,0.7,1,0.5,1,1.3c1.1,0.1,0,2.2,0.9,2.3c1.3,0.8-0.3,0.8,1.4,1.1c0,0.1,0.1,0.5,0.3,0.3c0.8,0.6,1.4,1,2,1.2
	c0.7,0.5-0.6,1.4,1.1,1.5c0.3,1.4-1.5,1.8-1.1,3.2c-0.5,0.3-1.6,0.8-0.7,1.3c1.4,1.9,1.3,0,1.7,2.6c0.7-0.1,0.3,1.4,0.8,1.7
	c0.3,0.5,1,0.4,0.8,1.4c-0.3,1.3,1.7,1.6,2.1,2.9c1,1,2.3-0.4,3.8,1.3c-0.1,1.5,2.1,2.2,2.2,3.6c1.4,1,4,1.3,3.6,3.7
	c1.7,2,1.9-0.8,3.1,1c0.6-0.2,0.7,2.3,1.9,1.3c0.4,1,1.3,1.6,1.2,2.6c1.1-0.1-0.6,1.2,0,1.5c0.5,2.1-0.4,3.1-1.2,4.2
	c-0.4,0.8-1.4-0.8-2-1c-0.6,0.5-1.4-1.1-1.6-0.3c-2,1.5,0.3,4.9-3.9,6.7c-2.4-0.1-4.9,1.5-6.2,2.9c-1.8,1-1.8,2.2,0.2,3.4
	c0,0,0.4,1.3,0.4,1.3c0.5,0.1,0.9,0.4,0.9,0.7c1.4,1.4,0.7,3.3-0.5,4.5c1.6,1.2,4.2,0.6,2.1,3.8c0.4,2.6-0.9,2.6-2.9,0.8
	c-2.6-1.4,0.3-1.3-1.2-2.3c0.3-1.4-2.6-1.6-3.1,0c-2.3,0.6-1.5-2.6-4.8-1c-0.6-1.2,0.8-2-1.4-0.5c0.3,1.8,0.8,2.4-1.9,1.9
	c-1.9-0.3-4.3,1.2-6.4,0.6c-1.1,0.7-0.7,2.5-3,1.6c-0.3,0.2-0.8,0.7-0.8,1.1c0.6,0.1,0.8,0.7,0.1,0.5c-1-0.3-1.3,0.6-1.9,1.1
	c-1.4,0.2,1.1-1.7-2.2-0.3c-1.3,1.2-2.4-0.2-2.9-1.6c-0.7-0.1-1.6-0.3-0.3-0.7c-0.1-1.1-1.4-0.2-2-0.1c-0.8-0.5-1.7-1.1-2.7-1.1
	c-0.4,0.8-2.4,1-2.1-0.1c0.5-0.5-1.1-0.3-0.4,0.2c0.4,0.3-0.5,1.4,0,1.8c0.4,0.1,0.4,0.5,0.3,0.8c-0.1,1.7-2.4,3.6-4.4,4.1
	c-0.2-0.6,1.8-2.6,0.1-2.8c-0.5,0-0.1,0.7-0.7,0.6c-0.9-0.1-0.8,0.2-1.1-1c1.2-0.8-0.3-0.8-0.3-1.7c-1.3,0.4-0.8-1.8-1.4-1.1
	c-3.4,0.1-1.1-1.4-2.9-1.2c-1.3,3.9-7.8-2.4-10.2-2.1c-1-0.3-2.3,0.4-3.1,0.6c-0.2-0.4-1.1-1.1-0.3-1.1c-1.4-0.9-1.6-1-1.3,0.5
	c-1.8-0.2-0.3-2.3-1.7-1.8c0.4-0.5-0.9-1.4-0.5-0.5c-0.1,1.1-0.8-1.5-1.3-0.4c0.5,0.4-0.9,0.3-1.1,0.6c-0.4,0.3-0.7,1.2-1.2,1.6
	c-0.3,1.4,0.8,0.6,0.8,1.4c0.2,0.1,0.3-0.4,0.8-0.1c0.2-0.5,1.1-0.9,1.5-0.2c0.1,0.3-0.2,0.5-0.2,0c-0.4,0.3,0.3,1.6-0.6,1.2
	c0.2-1.3-2.4-0.1-1.2,0.5c-0.5,0.4-1.2-0.1-1.6,0.2c-1.1,0.2-1.1-0.9-1.8-1c-1.4-0.7-2.5,1.4-3.9,1.4c-1.6-0.2-0.9,0.4-2-0.9
	c-0.5,0.1-4.6,2.2-3.4,0.3c0.2-0.1,0.2-0.3,0-0.4c0.5-0.6-0.1-0.3-0.4-0.1c-0.8,1.7-2.4-2.7-1.4-2.9c0.3-3.3,1-6,0.6-9.1
	c2.3-3.5,3-7.9,4-12.1c1.3-1.2,2.2-3.1,3.6-3.5c-0.1-0.7,3.3-4.9,1.8-4.1c-2-1.4-4.4-1.3-6-2.1c-0.4,0.3-0.8,0.6-1.2,0.3
	c-0.4-0.1-0.9,0.4-1.3-0.1c0-0.5-0.7-0.6-1.1-0.5c-1.1-0.8-0.7-2.2-1.9-1.9c-0.4-1.5-2,1.8-3,0.8c-2.4,0.7-1.6-1.4-2.9,0.4
	c-0.2-1.8-1.6-2.8-3.3-2.2c1,1.4-0.5,1-1.1,1.1c-1,0-0.5-0.7-0.7-1.3c-0.8,0.3-0.5-1.7-2-2.3c-0.8-1.4,1.2-0.4-0.7-1.9
	c0.6-0.8-1.3-1.3-1.7-1.6c-1.2,0.9-0.8-0.6-1-1.4c0.5-1.3,0.8-2.8,2.1-4.1c-0.1-0.5,0.5-1,0.1-1.8c0.5-0.4,0.3-0.4-0.1-0.5
	c-1.7-0.1-1.1-0.2-2.4-0.9c-0.5,0.7-0.5-0.5-1-0.7c-0.8-0.1-0.8-1.1-1-1.7c-0.8,0-0.6-0.8-1.2-1.1c0.4-0.6-0.7-1.5-0.3-2.2
	c0.1-0.2,0.3-1,0.4-1.4c-0.4-0.1,0-0.9,0.6-0.6c-0.7-2.5,1.4-1.1,1.9-3.2c1.5,0.5,1.7-0.5,0.5-1.3c1.1-1.4-0.1-3.3-1.8-2.7
	c-1.6-2.1,0.1-1.4,0.7-3c-2.1,0-1-0.5-2.5-2.2c-1.8,0.2-0.7-0.4-2-2c1,0.4,0.3-1,1.1-1.1c0.8,0.3,0.4-0.7,0.5-1.2
	c0.3-0.6-2-0.7-0.7-1.7c-2.4-0.6-1.4,0.9-2.4-1c-0.1-0.9,0.5-1.3,1-0.3c0.9-1.2,2.4-2.2,3.5-2.9c-0.6-0.3-0.3-0.3,0.2-0.5
	c-1.5-0.3-1.6,1.4-1.7-1.2c2-2.6,2.7-3.2,2-6.5c-0.7-0.9-2.2-1.8-1.3-3c-0.6-0.3-2.2-0.7-1-1.4c-3-1.1,0.1-0.7-1.5-2.3
	c-0.2-0.9,0.8-0.1,1.1-0.7c0.8-0.6,1.2-0.1,2.2-0.1c0-0.5-0.3-1.1-0.9-1.2c0.3-0.3,1.3-0.2,1.2,0.3c0.3,0.3,0.9,0.6,1.3,0.3
	c0.5,0.1,2.1,1.5,2,0.7c0.2-0.3-0.4-0.4-0.2-0.7c0.5,0.3,0.9,0.2,1.3,0.5c1.4-1.4,3.5-0.8,4.7-1.6c0-0.5,0.4-0.8,0.7-1
	c0.1-0.9-2.1-1.4-2.2-2c0.1-0.5,0.6-0.4,0.9-0.7c-0.2-0.9,1-0.9,1.6-0.8c0.5-0.5,0.5-1.5,1.4-1.4c0.3-0.5,0.7-1.3,1.4-1
	c0.6-0.3,0.1-0.7-0.1-1.1c1.1-1.9,0.2-2.9-0.7-4.5c-0.8,1.4-3.1,0.1-4.3-0.3c0.1-1.6-0.8-1.1,0.3-1.8c0,0,0.6,0,0.6,0
	c-2.4-2.6,1.9-1.9,3.4-1.9c2.6,0.1,2.8-14.1,4.2-15.8c-0.4-0.2-1.5,0.1-1-0.6c-0.3,0.6-1.7,0.5-2.2,0.3c-1.6,0.5-0.5-4,0.3-4.2
	c0.9,0.7-0.1-0.2,1.3-0.6c-3.4-0.7,3.9-4.4,5.4-2.8c5.2-0.6,7.5-2.6,9.9,2.7c-0.4,0.9-3,2.1-0.3,2.3c0.8,1.4,1.9,1.7,2.6,0
	c-0.1-1.4,0.6-1.8-1.2-1.6c-0.3-1,0.5-2.6,1.8-2c1,1.8,4.6,0.7,2.1,3.1c0.1,0-0.1,3.1,0.4,2.6c0,0,0.2-3.1,0.2-3.1
	c0.6-0.1,0.7-0.4,0.8-1c-1.4-1.7-1.4-4.5-0.2-6.3c1.4-3.4,2.2,0.3,7.2-0.2c3.8-4,6.8,5.3,10.1,6.4c5.4,0.4-1.7-0.3-2.3-2.3
	c0.1-1,0.1,0.3,0.4,0.3c0.4,0.4-0.3-0.8-0.3-0.9c-5.5-8.9-8-1.9-10.3-7.1c-1.3-1.7,0.5-1.1,1.6-1.1c0.5-0.9-0.8-3-1.8-2
	c-1.6-1.7,0.1-3,1.4-3.8c0.4-1.7-1.6,1.7-1.8-0.1c-0.7,0.6-1.9-0.6-2.2,0.6c-1.5-0.3-1.3-1.1-1.6-1.3c0.5,2-0.5-0.1,0.4-0.7
	c0.7,0.7,2.6-0.7,0-0.3c0.4-1.8,4.2,0,5.2-1.9c1.3-0.9,1.4,0.1,0.5-1.6c-0.4,0.6-2.5,2.3-2.6,0.8c-0.5-0.6,0.7-0.7,0.9-1.2
	c0.2-0.9-0.4-0.4-0.8-0.2c-1.1-0.4,0.3-0.1,0.7-0.4c0.6-0.9-0.1-0.7-0.6-0.9c-0.3,0.2,0.8-0.9-1.1-1.8c-0.1-1.3-0.8-1-0.8,0.2
	c-0.7,0.1-1.9,1.7-2.7,1c4.8-1.2,2-2.8,1.2-5.7c-0.8-0.2-2.4,0.2-2.9,0.8c-1.9-1.3-2,0.3-1.9,2.1c-0.5,2.1,1.1-8.1,2.2-6.7
	c1,0.3-0.3-0.1-0.6,0.1c0,0.3,0.7,0.2,0.7,0.6C49.5,13.1,55,15.4,56.7,13.5z"/>
<circle class="st1" cx="45.2" cy="59.2" r="1.5"/>
<circle class="st1" cx="68.9" cy="27.2" r="1.5"/>
<circle class="st1" cx="81.2" cy="55.9" r="1.5"/>
<circle class="st1" cx="26" cy="99.6" r="1.5"/>
<circle class="st1" cx="113.1" cy="49.4" r="1.5"/>
<circle class="st1" cx="94.3" cy="81.9" r="1.5"/>
<circle class="st1" cx="129" cy="102.9" r="1.5"/>
<circle class="st1" cx="119.3" cy="25.9" r="1.5"/>
<circle class="st1" cx="56.9" cy="127.6" r="1.5"/>
<circle class="st1" cx="208.7" cy="145.8" r="1.5"/>
<circle class="st1" cx="252.7" cy="168.3" r="1.5"/>
<circle class="st1" cx="106.6" cy="99.7" r="1.5"/>
<circle class="st1" cx="59.2" cy="74.1" r="1.5"/>
<circle class="st1" cx="129" cy="66.9" r="1.5"/>
<circle class="st1" cx="92.4" cy="34.2" r="1.5"/>
<circle class="st1" cx="31.9" cy="74.1" r="1.5"/>
<circle class="st1" cx="136.4" cy="42.9" r="1.5"/>
<circle class="st1" cx="62.4" cy="42.9" r="1.5"/>
<circle class="st1" cx="125.8" cy="78.6" r="1.5"/>
<circle class="st1" cx="45.2" cy="106.1" r="1.5"/>
<circle class="st1" cx="36.7" cy="42.9" r="1.5"/>
<circle class="st1" cx="65.6" cy="160.2" r="1.5"/>
<circle class="st1" cx="72.1" cy="97.3" r="1.5"/>
<circle class="st1" cx="106.6" cy="171.5" r="1.5"/>
<circle class="st1" cx="53.6" cy="81.9" r="1.5"/>
<circle class="st1" cx="139.7" cy="70.2" r="1.5"/>
<circle class="st1" cx="282.7" cy="157.9" r="1.5"/>
<circle class="st1" cx="199.3" cy="60.1" r="1.5"/>
<circle class="st1" cx="219.8" cy="22.6" r="1.5"/>
<circle class="st1" cx="235.3" cy="56.8" r="1.5"/>
<circle class="st1" cx="180.1" cy="100.6" r="1.5"/>
<circle class="st1" cx="238.6" cy="175.7" r="1.5"/>
<circle class="st1" cx="194.1" cy="141.5" r="1.5"/>
<circle class="st1" cx="283.2" cy="103.8" r="1.5"/>
<circle class="st1" cx="279.4" cy="25.7" r="1.5"/>
<circle class="st1" cx="211.1" cy="128.6" r="1.5"/>
<circle class="st1" cx="249.4" cy="185.9" r="1.5"/>
<circle class="st1" cx="211.1" cy="172.5" r="1.5"/>
<circle class="st1" cx="246.5" cy="35.1" r="1.5"/>
<circle class="st1" cx="262.7" cy="131.8" r="1.5"/>
<circle class="st1" cx="276.7" cy="52.7" r="1.5"/>
<circle class="st1" cx="266" cy="149.1" r="1.5"/>
<circle class="st1" cx="238.6" cy="138.3" r="1.5"/>
<circle class="st1" cx="208.7" cy="67.9" r="1.5"/>
<circle class="st1" cx="219.8" cy="182.7" r="1.5"/>
<circle class="st1" cx="219.8" cy="161.2" r="1.5"/>
<circle class="st1" cx="260.8" cy="172.5" r="1.5"/>
<circle class="st1" cx="260.8" cy="85.1" r="1.5"/>
<circle class="st1" cx="293.8" cy="71.1" r="1.5"/>
</svg>
